<svg viewBox="0 0 1024 1024" xmlns="http://www.w3.org/2000/svg" role="img" aria-label="App icon">
  <defs>
    <linearGradient id="bg" x1="0" y1="0" x2="0" y2="1">
      <stop offset="0" stop-color="#4A57D6"/><stop offset="1" stop-color="#1C2270"/>
    </linearGradient>
    <radialGradient id="hi" cx="0.5" cy="0.20" r="0.75">
      <stop offset="0" stop-color="#ffffff" stop-opacity="0.20"/><stop offset="1" stop-color="#ffffff" stop-opacity="0"/>
    </radialGradient>
    <linearGradient id="face" x1="0" y1="0" x2="0" y2="1">
      <stop offset="0" stop-color="#ffffff"/><stop offset="1" stop-color="#EBEFFA"/>
    </linearGradient>
    <filter id="sh" x="-40%" y="-40%" width="180%" height="180%">
      <feDropShadow dx="0" dy="28" stdDeviation="34" flood-color="#0A0D38" flood-opacity="0.42"/>
    </filter>
  </defs>
  <rect width="1024" height="1024" rx="228" fill="url(#bg)"/>
  <rect width="1024" height="1024" rx="228" fill="url(#hi)"/>
  <g filter="url(#sh)">
    <rect x="262" y="290" width="500" height="486" rx="100" fill="#C5CCE3"/>
    <rect x="262" y="262" width="500" height="486" rx="100" fill="url(#face)"/>
  </g>
  <rect x="300" y="298" width="424" height="52" rx="26" fill="#ffffff" opacity="0.55"/>
  <path d="M458.03159365515205 620.7319349137568Q446.13096847853643 620.7319349137568 439.7647653060576 614.0986385970098Q433.3985621335788 607.4653422802628 433.3985621335788 595.4655188103786V531.6687227635584H412.4125175918831Q406.20067871598314 531.6687227635584 400.9771115349844 533.0537876315337Q395.75354435398555 534.438852499509 391.64794889669383 537.6439702307275Q387.5423534394022 540.8490879619461 384.4364340014522 546.8434328402122L352.0574306850124 606.0001765301158Q347.146844557132 615.088765910803 339.8897123641285 618.3262409964509Q332.63258017112497 621.5637160820988 325.3258488314872 620.2072973307688Q318.0191174918494 618.8508785794389 312.69264077979807 613.8906933049243Q307.36616406774675 608.9305080304097 306.0097453164168 601.3566835465037Q304.65332656508684 593.7828590625977 309.56391269296716 584.6942696819106L327.48594385669065 551.856928499145Q334.25477767000797 539.2693377452177 344.518631007693 532.4700021963631Q354.782484345378 525.6706666475084 367.9652648589164 525.6706666475084H380.02238056209126L380.28178061970306 530.8178441841195Q343.16777911303905 530.8178441841195 322.76022376092646 512.7454305726897Q302.3526684088139 494.67301696125986 302.3526684088139 463.04198269320636Q302.3526684088139 441.52600432293514 311.41844914062017 426.2942726240791Q320.48422987242645 411.06254092522306 337.9919554597825 402.89723791948995Q355.49968104713855 394.73193491375685 380.28178061970306 394.73193491375685H456.7648244915422Q469.29883424996274 394.73193491375685 475.9321305667098 401.36523123050387Q482.56542688345684 407.9985275472509 482.56542688345684 420.53253730567144V595.4655188103786Q482.56542688345684 607.4653422802628 476.24882285761225 614.0986385970098Q469.9322188317677 620.7319349137568 458.03159365515205 620.7319349137568ZM389.0345802983909 496.12704899805476H433.3985621335788V432.96734877082355H389.0345802983909Q369.7619678511019 432.96734877082355 359.6601718966521 440.852298688956Q349.55837594220236 448.7372486070884 349.55837594220236 464.3888527389879Q349.55837594220236 480.35714916178983 359.6601718966521 488.2420990799223Q369.7619678511019 496.12704899805476 389.0345802983909 496.12704899805476Z M518.147969940229 620.7319349137568Q509.35697543934737 620.7319349137568 503.7729542885763 616.6531299542185Q498.1889331378052 612.5743249946802 496.89166223865794 605.6243363870307Q495.5943913395107 598.6743477793812 499.4557023014151 590.0016489828649L580.7809063544918 412.3749273865948Q585.6914924823722 401.6036782581267 592.7406793832902 396.80183912906335Q599.7898662842082 392.0 608.977653958164 392.0Q617.9479476344857 392.0 624.9475353887694 396.80183912906335Q631.9471231430532 401.6036782581267 636.8577092709336 412.3749273865948L718.4004073216443 590.0016489828649Q722.578410574451 598.7735460726497 721.3803379685723 605.8322816791161Q720.1822653626937 612.8910172855826 714.806189504008 616.8114760996698Q709.4301136453224 620.7319349137568 700.9558114353433 620.7319349137568Q690.3028580112407 620.7319349137568 684.4517437162013 615.7126017870596Q678.600629421162 610.6932686603623 674.0067355841842 599.941116942991L655.1081076610883 555.9893144541901L674.7886469948035 569.5535019674898H542.632474632988L562.313013966703 555.9893144541901L543.6318800412412 599.941116942991Q538.8204922066294 610.9107626579962 533.5932137878466 615.8213487858766Q528.3659353690638 620.7319349137568 518.147969940229 620.7319349137568ZM608.344269376359 446.98562169048796 567.7768837942167 543.7147047533813 559.1460910576783 531.100594112789H658.2750305701131L649.8617318312087 543.7147047533813L608.977653958164 446.98562169048796Z" fill="#2A2E86"/>
  <rect x="464.0" y="640.0" width="96" height="12" rx="6" fill="#15B85A"/>
</svg>
