<svg viewBox="0 0 100 100" xmlns="http://www.w3.org/2000/svg" role="img" aria-label="Menu bar template glyph">
  <!-- macOS template image: single tone + alpha. Counters filled, letters are real holes (fill-rule evenodd). -->
  <path fill-rule="evenodd" fill="#000000" d="M28,8 H72 A20,20 0 0 1 92,28 V72 A20,20 0 0 1 72,92 H28 A20,20 0 0 1 8,72 V28 A20,20 0 0 1 28,8 Z M41.93395656758925 67.41099905782183Q40.14359702774442 67.41099905782183 39.185849647813974 66.41306952344395Q38.22810226788353 65.41513998906608 38.22810226788353 63.60985681218085V54.01210873434065H35.070909726212506Q34.13638529355498 54.01210873434065 33.35053890349322 54.220481325098Q32.56469251343145 54.42885391585535 31.947036559679603 54.91103976922451Q31.329380605927756 55.39322562259367 30.862118389598994 56.295029719323956L25.99094089951513 65.19471682311477Q25.25218015461278 66.56202672994382 24.16039920522287 67.04908050389085Q23.06861825583296 67.53613427783787 21.96937548792285 67.33207127985018Q20.87013272001274 67.12800828186249 20.068804365102363 66.38178571843994Q19.267476010191984 65.6355631550174 19.063413012204293 64.49613823265986Q18.8593500142166 63.35671331030231 19.59811075911895 61.98940340347326L22.294345535962304 57.04927242907492Q23.312665667169338 55.15556408556374 24.856785195847614 54.13265519768294Q26.400904724525887 53.10974630980215 28.384154890279454 53.10974630980215H30.198057252703997L30.237082040132314 53.884100452478165Q24.65355968957224 53.884100452478165 21.58339649500663 51.16524176757279Q18.513233300441023 48.44638308266741 18.513233300441023 43.687731909597424Q18.513233300441023 40.45081480964511 19.87711181761542 38.159315350525176Q21.240990334789814 35.86781589140524 23.87489595412657 34.639407474613535Q26.508801573463323 33.410999057821826 30.237082040132314 33.410999057821826H41.74338067571873Q43.62902816149882 33.410999057821826 44.6269576958767 34.4089285921997Q45.624887230254565 35.40685812657757 45.624887230254565 37.29250561235766V63.60985681218085Q45.624887230254565 65.41513998906608 44.67460166884432 66.41306952344395Q43.72431610743408 67.41099905782183 41.93395656758925 67.41099905782183ZM31.553874912147293 48.66513126519408H38.22810226788353V39.163229461097345H31.553874912147293Q28.65445534043125 39.163229461097345 27.134716126045006 40.349460864710196Q25.614976911658758 41.53569226832304 25.614976911658758 43.8903583766619Q25.614976911658758 46.29266845796839 27.134716126045006 47.47889986158123Q28.65445534043125 48.66513126519408 31.553874912147293 48.66513126519408Z M50.871818486583116 67.41099905782183Q49.54927949087526 67.41099905782183 48.70920551244067 66.79737353293552Q47.86913153400608 66.18374800804922 47.67396688546181 65.13817450070373Q47.47880223691753 64.09260099335823 48.059707425876596 62.78785869653721L60.29447263740141 36.06525456258506Q61.03323338230376 34.44480115387747 62.09373052668966 33.72240057693874Q63.15422767107556 33.0 64.536461214945 33.0Q65.88597442288722 33.0 66.93900974875291 33.72240057693874Q67.99204507461862 34.44480115387747 68.73080581952097 36.06525456258506L80.998291366973 62.78785869653721Q81.6268405288997 64.10752463039863 81.44659951739584 65.16945830570774Q81.26635850589196 66.23139198101686 80.45756833246138 66.82119551941935Q79.6487781590308 67.41099905782183 78.37388313629057 67.41099905782183Q76.77122642646981 67.41099905782183 75.8909702935878 66.65587814495586Q75.01071416070579 65.90075723208989 74.31959738877106 64.28317688522874L71.47644097556196 57.670958811692316L74.43723007886423 59.71158879156925H54.55532804213092L57.51611714543319 57.670958811692316L54.705681068151314 64.28317688522874Q53.98184396028936 65.93347756801712 53.19543924241938 66.67223831291948Q52.409034524549405 67.41099905782183 50.871818486583116 67.41099905782183ZM64.44117326900974 41.27217317467518 58.33811526107684 55.82433611334055 57.039677415756906 53.9266380523665H71.95288070523824L70.68716319584554 55.82433611334055L64.536461214945 41.27217317467518Z"/>
</svg>
